<?xml version="1.0"?>
<svg version="1.1" xmlns="http://www.w3.org/2000/svg" width="400" height="200" >
    <path fill="#000000" d="M19.6,98.44l19.08,0l0-2.48l-21.56,0l0,0.48l0,27.56l2.48,0l0-12.48l10.12,0l0-2.6l-10.12,0l0-10.48z"/><path fill="#" d="M61.9416,109.016q-1.68,0-2.828-0.77t-1.148-1.946q0-1.484,1.932-2.968q0.336-0.252,0.504-0.252t0.168,0.112q0,0.28-0.448,0.448q-1.568,1.26-1.568,2.548q0,0.924,0.84,1.554t2.1,0.63q2.744,0,5.18-2.632q1.26-1.372,1.26-3.164t-1.344-2.66q-1.12-0.784-3.024-0.784q-2.744,0-5.516,1.372q-3.416,1.652-6.174,5.138t-2.758,6.706q0,2.548,1.736,3.934t4.312,1.386q2.94,0,5.768-1.428q2.156-1.12,3.724-2.856q0.448-0.504,0.7-0.504q0.168,0,0.168,0.294t-0.308,0.602q-1.484,1.568-4.284,3.024q-3.444,1.82-6.93,1.82t-5.194-2.296q-1.148-1.512-1.148-3.612q0-0.924,0.224-1.988q0.756-3.584,3.976-6.972q2.324-2.436,5.516-3.794t6.048-1.358q1.512,0,2.632,0.364q3.052,0.952,3.052,3.836q0,1.764-1.036,3.052q-2.576,3.164-6.132,3.164z M74.99436,116.688q-1.652,0-1.652-1.932q0-1.092,0.77-2.422t1.89-3.122q-3.584,1.792-6.496,5.292q-1.624,2.436-1.904,2.436q-0.812,0-0.812-0.476q0-0.252,0.336-0.896q2.716-4.844,4.116-7.084q3.332-5.348,4.704-5.796q0.056-0.028,0.112-0.028q0.364,0,0.504,0.588q-0.084,0.588-2.912,4.256q-2.94,3.724-3.332,4.872q1.036-0.756,3.612-2.548q2.772-1.932,3.668-1.932t0.896,0.7q0,0.112-0.014,0.154t-1.946,2.646t-1.932,3.836q0,0.644,0.476,0.644q1.512-0.056,4.536-3.64q0.252-0.252,0.378-0.252t0.126,0.168q0,0.56-2.772,3.024q-1.736,1.512-2.352,1.512z"/></svg>
